<svg width="24" height="24" viewBox="0 0 24 24" fill="none" xmlns="http://www.w3.org/2000/svg">
<path d="M11.9999 19C12.9459 19 13.8099 18.897 14.5979 18.719L12.8409 16.962C12.5679 16.983 12.2909 17 11.9999 17C6.6489 17 4.5759 13.154 4.0739 12C4.4502 11.1584 4.95937 10.3829 5.5819 9.70297L4.1839 8.30497C2.6459 9.97197 2.0629 11.651 2.0519 11.684C1.98335 11.8894 1.98335 12.1115 2.0519 12.317C2.0729 12.383 4.3669 19 11.9999 19ZM11.9999 4.99997C10.1629 4.99997 8.6539 5.39597 7.3959 5.98097L3.7069 2.29297L2.2929 3.70697L20.2929 21.707L21.7069 20.293L18.3879 16.974C21.0019 15.023 21.9349 12.359 21.9489 12.317C22.0174 12.1115 22.0174 11.8894 21.9489 11.684C21.9269 11.617 19.6329 4.99997 11.9999 4.99997ZM16.9719 15.558L14.6919 13.278C14.8819 12.888 14.9999 12.459 14.9999 12C14.9999 10.359 13.6409 8.99997 11.9999 8.99997C11.5409 8.99997 11.1119 9.11797 10.7229 9.30897L8.9149 7.50097C9.9076 7.16113 10.9507 6.99174 11.9999 6.99997C17.3509 6.99997 19.4239 10.846 19.9259 12C19.6239 12.692 18.7599 14.342 16.9719 15.558Z" fill="#212529"/>
</svg>
