<svg width="24" height="19" viewBox="0 0 24 19" fill="none" xmlns="http://www.w3.org/2000/svg">
<path d="M12.0001 1.99818C10.6018 1.99789 9.25584 2.5302 8.23602 3.48687C7.2162 4.44353 6.59904 5.75271 6.51006 7.14818L6.46206 7.93118L5.69206 8.07118C4.59105 8.2774 3.60646 8.88667 2.93062 9.77998C2.25478 10.6733 1.93624 11.7865 2.03721 12.9021C2.13819 14.0177 2.65143 15.0555 3.47668 15.813C4.30193 16.5704 5.37991 16.993 6.50006 16.9982H17.5001C18.6245 17 19.7089 16.5808 20.5397 15.8231C21.3705 15.0654 21.8875 14.0241 21.989 12.9043C22.0904 11.7844 21.769 10.6672 21.0879 9.7725C20.4068 8.87781 19.4155 8.27051 18.3091 8.07018L17.5381 7.93018L17.4891 7.14918C17.4003 5.75371 16.7834 4.44442 15.7638 3.48757C14.7442 2.53072 13.3983 1.99816 12.0001 1.99818ZM4.59806 6.28118C4.8874 4.52686 5.79043 2.93233 7.14612 1.78192C8.50181 0.631509 10.222 0 12.0001 0C13.7781 0 15.4983 0.631509 16.854 1.78192C18.2097 2.93233 19.1127 4.52686 19.4021 6.28118C20.8897 6.73846 22.164 7.71418 22.9934 9.03109C23.8228 10.348 24.1523 11.9187 23.9221 13.458C23.6919 14.9972 22.9172 16.4027 21.7388 17.4194C20.5604 18.436 19.0564 18.9962 17.5001 18.9982H6.50006C4.94191 18.9994 3.43517 18.4408 2.25433 17.4242C1.07349 16.4076 0.297114 15.0007 0.0666352 13.4597C-0.163844 11.9186 0.166909 10.3461 0.998643 9.02851C1.83038 7.71092 3.10775 6.73594 4.59806 6.28118ZM12.0001 5.08418L16.4141 9.49818L15.0001 10.9122L13.0001 8.91218V14.9982H11.0001V8.91218L9.00006 10.9122L7.58606 9.49818L12.0001 5.08418Z" fill="black" fill-opacity="0.6"/>
</svg>
