<svg width="26" height="26" viewBox="0 0 26 26" fill="none" xmlns="http://www.w3.org/2000/svg">
<path d="M13 16.25C14.7949 16.25 16.25 14.7949 16.25 13C16.25 11.2051 14.7949 9.75 13 9.75C11.2051 9.75 9.75 11.2051 9.75 13C9.75 14.7949 11.2051 16.25 13 16.25Z" stroke="white" stroke-width="1.5"/>
<path d="M14.9121 2.33129C14.5145 2.16663 14.0097 2.16663 13 2.16663C11.9903 2.16663 11.4855 2.16663 11.0879 2.33129C10.8249 2.44018 10.5858 2.59985 10.3845 2.80116C10.1832 3.00247 10.0236 3.24149 9.91467 3.50454C9.815 3.74613 9.77492 4.02888 9.75975 4.43946C9.7527 4.73622 9.67049 5.02633 9.52081 5.28268C9.37114 5.53902 9.15889 5.75321 8.90392 5.90521C8.64479 6.05013 8.35313 6.12694 8.05624 6.12845C7.75935 6.12997 7.46692 6.05614 7.20633 5.91388C6.84233 5.72104 6.57908 5.61488 6.318 5.58021C5.74851 5.50532 5.17259 5.65962 4.71683 6.00921C4.37667 6.27246 4.12317 6.70904 3.61833 7.58329C3.1135 8.45754 2.86 8.89412 2.80475 9.32204C2.76752 9.6042 2.78625 9.89093 2.85986 10.1658C2.93346 10.4408 3.06051 10.6985 3.23375 10.9243C3.39408 11.1323 3.61833 11.3067 3.96608 11.5255C4.4785 11.8473 4.80783 12.3955 4.80783 13C4.80783 13.6045 4.4785 14.1526 3.96608 14.4733C3.61833 14.6932 3.393 14.8676 3.23375 15.0756C3.06051 15.3014 2.93346 15.5592 2.85986 15.8341C2.78625 16.109 2.76752 16.3957 2.80475 16.6779C2.86108 17.1047 3.1135 17.5424 3.61725 18.4166C4.12317 19.2909 4.37558 19.7275 4.71683 19.9907C4.94264 20.1639 5.20036 20.291 5.47528 20.3646C5.7502 20.4382 6.03693 20.4569 6.31908 20.4197C6.57908 20.385 6.84233 20.2789 7.20633 20.086C7.46692 19.9438 7.75935 19.8699 8.05624 19.8715C8.35313 19.873 8.64479 19.9498 8.90392 20.0947C9.42717 20.398 9.73808 20.956 9.75975 21.5605C9.77492 21.9721 9.81392 22.2538 9.91467 22.4954C10.0236 22.7584 10.1832 22.9974 10.3845 23.1988C10.5858 23.4001 10.8249 23.5597 11.0879 23.6686C11.4855 23.8333 11.9903 23.8333 13 23.8333C14.0097 23.8333 14.5145 23.8333 14.9121 23.6686C15.1751 23.5597 15.4142 23.4001 15.6155 23.1988C15.8168 22.9974 15.9764 22.7584 16.0853 22.4954C16.185 22.2538 16.2251 21.9721 16.2402 21.5605C16.2619 20.956 16.5728 20.397 17.0961 20.0947C17.3552 19.9498 17.6469 19.873 17.9438 19.8715C18.2406 19.8699 18.5331 19.9438 18.7937 20.086C19.1577 20.2789 19.4209 20.385 19.6809 20.4197C19.9631 20.4569 20.2498 20.4382 20.5247 20.3646C20.7996 20.291 21.0574 20.1639 21.2832 19.9907C21.6244 19.7285 21.8768 19.2909 22.3817 18.4166C22.8865 17.5424 23.14 17.1058 23.1952 16.6779C23.2325 16.3957 23.2138 16.109 23.1401 15.8341C23.0665 15.5592 22.9395 15.3014 22.7662 15.0756C22.6059 14.8676 22.3817 14.6932 22.0339 14.4744C21.7803 14.3199 21.5701 14.1036 21.4229 13.8457C21.2757 13.5879 21.1963 13.2969 21.1922 13C21.1922 12.3955 21.5215 11.8473 22.0339 11.5266C22.3817 11.3067 22.607 11.1323 22.7662 10.9243C22.9395 10.6985 23.0665 10.4408 23.1401 10.1658C23.2138 9.89093 23.2325 9.6042 23.1952 9.32204C23.1389 8.89521 22.8865 8.45754 22.3827 7.58329C21.8768 6.70904 21.6244 6.27246 21.2832 6.00921C21.0574 5.83597 20.7996 5.70892 20.5247 5.63531C20.2498 5.56171 19.9631 5.54298 19.6809 5.58021C19.4209 5.61488 19.1577 5.72104 18.7926 5.91388C18.5321 6.05595 18.2399 6.12967 17.9432 6.12815C17.6465 6.12664 17.3551 6.04993 17.0961 5.90521C16.8411 5.75321 16.6289 5.53902 16.4792 5.28268C16.3295 5.02633 16.2473 4.73622 16.2402 4.43946C16.2251 4.02779 16.1861 3.74613 16.0853 3.50454C15.9764 3.24149 15.8168 3.00247 15.6155 2.80116C15.4142 2.59985 15.1751 2.44018 14.9121 2.33129Z" stroke="white" stroke-width="1.5"/>
</svg>
